# xmcd CD database file
#
# Track frame offsets:
#	150
#	32765
#	57555
#	85585
#	116322
#	147952
#
# Disc length: 2360 seconds
#
# Revision: 2
# Processed by: cddbd v1.5.1PL0 Copyright (c) Steve Scherf et al.
# Submitted via: CDex 1.51
#
DISCID=48093606
DTITLE=Herbie Hancock - Takin' Off
DYEAR=1962
DGENRE=Jazz
TTITLE0=Watermelon Man
TTITLE1=Three Bags Full
TTITLE2=Empty Pockets
TTITLE3=The Maze
TTITLE4=Driftin'
TTITLE5=Alone And I
EXTD=YEAR: 1962
EXTT0=
EXTT1=
EXTT2=
EXTT3=
EXTT4=
EXTT5=
PLAYORDER=
